<?xml version="1.0" encoding="UTF-8"?>
<!DOCTYPE svg PUBLIC "-//W3C//DTD SVG 1.1//EN" "http://www.w3.org/Graphics/SVG/1.1/DTD/svg11.dtd">
<svg xmlns="http://www.w3.org/2000/svg" version="1.1" width="126px" height="150px" style="shape-rendering:geometricPrecision; text-rendering:geometricPrecision; image-rendering:optimizeQuality; fill-rule:evenodd; clip-rule:evenodd" xmlns:xlink="http://www.w3.org/1999/xlink">
<g><path style="opacity:0.959" fill="#000101" d="M 110.5,61.5 C 109.5,61.5 108.5,61.5 107.5,61.5C 105.882,59.684 103.882,58.3507 101.5,57.5C 101.983,53.4231 100.316,51.0897 96.5,50.5C 96.6633,48.1432 96.4966,45.8098 96,43.5C 95.2753,42.9415 94.4419,42.6082 93.5,42.5C 83.0234,48.0832 72.0234,51.9165 60.5,54C 61.3805,53.2917 62.0472,52.4584 62.5,51.5C 65.3145,50.0992 66.6479,48.0992 66.5,45.5C 64.4346,46.8567 62.4346,48.19 60.5,49.5C 55.4951,51.5013 50.4951,53.5013 45.5,55.5C 40.0086,54.2244 34.6753,52.5578 29.5,50.5C 28.5581,50.6082 27.7247,50.9415 27,51.5C 25.8555,54.0804 25.0222,56.7471 24.5,59.5C 21.509,59.1663 19.1757,60.1663 17.5,62.5C 16.8333,62.5 16.5,62.1667 16.5,61.5C 14.4825,20.6841 33.8159,2.1841 74.5,6C 89.98,7.81828 100.48,15.9849 106,30.5C 108.156,40.7651 109.656,51.0985 110.5,61.5 Z"/></g>
<g><path style="opacity:1" fill="#ebf0f2" d="M 96.5,50.5 C 80.0664,58.9673 63.0664,60.634 45.5,55.5C 50.4951,53.5013 55.4951,51.5013 60.5,49.5C 61.8333,49.5 62.5,50.1667 62.5,51.5C 62.0472,52.4584 61.3805,53.2917 60.5,54C 72.0234,51.9165 83.0234,48.0832 93.5,42.5C 94.4419,42.6082 95.2753,42.9415 96,43.5C 96.4966,45.8098 96.6633,48.1432 96.5,50.5 Z"/></g>
<g><path style="opacity:1" fill="#acacac" d="M 62.5,51.5 C 62.5,50.1667 61.8333,49.5 60.5,49.5C 62.4346,48.19 64.4346,46.8567 66.5,45.5C 66.6479,48.0992 65.3145,50.0992 62.5,51.5 Z"/></g>
<g><path style="opacity:1" fill="#44c7fc" d="M 45.5,55.5 C 63.0664,60.634 80.0664,58.9673 96.5,50.5C 100.316,51.0897 101.983,53.4231 101.5,57.5C 102.487,60.0858 104.487,61.4191 107.5,61.5C 108.761,65.2436 109.428,69.2436 109.5,73.5C 109.393,80.1967 108.893,86.8634 108,93.5C 107.722,94.4158 107.222,95.0825 106.5,95.5C 102.154,95.3343 97.8206,95.501 93.5,96C 92.0577,96.3768 91.0577,97.2101 90.5,98.5C 87.0865,99.9972 83.7532,101.664 80.5,103.5C 79.5655,102.432 79.2322,101.099 79.5,99.5C 79.2011,97.396 79.5344,95.396 80.5,93.5C 85.1843,90.4737 89.8509,87.4737 94.5,84.5C 95.1174,84.3893 95.6174,84.056 96,83.5C 96.8136,78.9796 96.647,74.6463 95.5,70.5C 95.665,67.1501 95.4983,63.8168 95,60.5C 94.2753,59.9415 93.4419,59.6082 92.5,59.5C 78.268,65.389 63.6013,66.889 48.5,64C 43.1637,62.139 37.8304,60.8057 32.5,60C 31.3526,67.7538 31.1859,75.5872 32,83.5C 36.5723,87.2035 41.4056,90.5369 46.5,93.5C 47.4656,95.396 47.7989,97.396 47.5,99.5C 47.7678,101.099 47.4345,102.432 46.5,103.5C 42.0162,101.757 37.6829,99.7571 33.5,97.5C 33.1667,96.5 32.5,95.8333 31.5,95.5C 27.6478,94.3563 23.6478,94.3563 19.5,95.5C 18.2894,84.588 17.6227,73.588 17.5,62.5C 20.0177,61.7362 22.351,60.7362 24.5,59.5C 25.0222,56.7471 25.8555,54.0804 27,51.5C 27.7247,50.9415 28.5581,50.6082 29.5,50.5C 34.6753,52.5578 40.0086,54.2244 45.5,55.5 Z"/></g>
<g><path style="opacity:1" fill="#09465f" d="M 101.5,57.5 C 103.882,58.3507 105.882,59.684 107.5,61.5C 104.487,61.4191 102.487,60.0858 101.5,57.5 Z"/></g>
<g><path style="opacity:1" fill="#0b5c7c" d="M 24.5,59.5 C 22.351,60.7362 20.0177,61.7362 17.5,62.5C 19.1757,60.1663 21.509,59.1663 24.5,59.5 Z"/></g>
<g><path style="opacity:1" fill="#b1fae6" d="M 95.5,70.5 C 95.6469,75.2142 95.3136,79.8809 94.5,84.5C 89.8509,87.4737 85.1843,90.4737 80.5,93.5C 79.5344,95.396 79.2011,97.396 79.5,99.5C 76.8532,87.5398 71.5199,76.8731 63.5,67.5C 55.4959,76.8415 50.1626,87.5082 47.5,99.5C 47.7989,97.396 47.4656,95.396 46.5,93.5C 41.4056,90.5369 36.5723,87.2035 32,83.5C 31.1859,75.5872 31.3526,67.7538 32.5,60C 37.8304,60.8057 43.1637,62.139 48.5,64C 63.6013,66.889 78.268,65.389 92.5,59.5C 93.4419,59.6082 94.2753,59.9415 95,60.5C 95.4983,63.8168 95.665,67.1501 95.5,70.5 Z"/></g>
<g><path style="opacity:0.265" fill="#179bcf" d="M 16.5,61.5 C 16.5,62.1667 16.8333,62.5 17.5,62.5C 17.6227,73.588 18.2894,84.588 19.5,95.5C 19.5,95.8333 19.5,96.1667 19.5,96.5C 19.5,96.8333 19.5,97.1667 19.5,97.5C 17.87,95.9739 17.0367,93.9739 17,91.5C 15.6603,81.3481 15.4936,71.3481 16.5,61.5 Z"/></g>
<g><path style="opacity:0.235" fill="#1699cd" d="M 107.5,61.5 C 108.5,61.5 109.5,61.5 110.5,61.5C 111.506,71.3481 111.34,81.3481 110,91.5C 109.963,93.9739 109.13,95.9739 107.5,97.5C 107.167,96.8333 106.833,96.1667 106.5,95.5C 107.222,95.0825 107.722,94.4158 108,93.5C 108.893,86.8634 109.393,80.1967 109.5,73.5C 109.428,69.2436 108.761,65.2436 107.5,61.5 Z"/></g>
<g><path style="opacity:1" fill="#3ce8b1" d="M 79.5,99.5 C 79.2322,101.099 79.5655,102.432 80.5,103.5C 80.762,104.978 80.4287,106.311 79.5,107.5C 68.9192,113.932 58.2525,114.099 47.5,108C 46.6198,106.644 46.2865,105.144 46.5,103.5C 47.4345,102.432 47.7678,101.099 47.5,99.5C 50.1626,87.5082 55.4959,76.8415 63.5,67.5C 71.5199,76.8731 76.8532,87.5398 79.5,99.5 Z"/></g>
<g><path style="opacity:1" fill="#339cb2" d="M 95.5,70.5 C 96.647,74.6463 96.8136,78.9796 96,83.5C 95.6174,84.056 95.1174,84.3893 94.5,84.5C 95.3136,79.8809 95.6469,75.2142 95.5,70.5 Z"/></g>
<g><path style="opacity:1" fill="#08445c" d="M 31.5,95.5 C 27.4659,95.5045 23.4659,95.8379 19.5,96.5C 19.5,96.1667 19.5,95.8333 19.5,95.5C 23.6478,94.3563 27.6478,94.3563 31.5,95.5 Z"/></g>
<g><path style="opacity:0.822" fill="#060607" d="M 31.5,95.5 C 32.5,95.8333 33.1667,96.5 33.5,97.5C 33.162,104.142 34.3286,110.475 37,116.5C 42.761,124.265 49.261,131.431 56.5,138C 60.7416,140.202 64.7416,139.869 68.5,137C 74.3333,132.5 79.5,127.333 84,121.5C 88.7109,114.592 90.8776,106.926 90.5,98.5C 91.0577,97.2101 92.0577,96.3768 93.5,96C 97.8206,95.501 102.154,95.3343 106.5,95.5C 106.833,96.1667 107.167,96.8333 107.5,97.5C 108.23,105.38 106.063,112.38 101,118.5C 100.333,117.833 99.6667,117.167 99,116.5C 97.654,119.179 95.654,121.179 93,122.5C 92.0546,122.095 91.3879,121.428 91,120.5C 84.1975,126.301 77.6975,132.468 71.5,139C 68.667,141.166 65.5003,142.666 62,143.5C 59.0053,142.724 56.172,141.557 53.5,140C 47.6274,132.46 40.7941,125.96 33,120.5C 31.3196,121.603 29.8196,121.27 28.5,119.5C 23.5512,112.992 20.5512,105.659 19.5,97.5C 19.5,97.1667 19.5,96.8333 19.5,96.5C 23.4659,95.8379 27.4659,95.5045 31.5,95.5 Z"/></g>
<g><path style="opacity:1" fill="#f9fafa" d="M 33.5,97.5 C 37.6829,99.7571 42.0162,101.757 46.5,103.5C 46.2865,105.144 46.6198,106.644 47.5,108C 58.2525,114.099 68.9192,113.932 79.5,107.5C 80.4287,106.311 80.762,104.978 80.5,103.5C 83.7532,101.664 87.0865,99.9972 90.5,98.5C 90.8776,106.926 88.7109,114.592 84,121.5C 79.5,127.333 74.3333,132.5 68.5,137C 64.7416,139.869 60.7416,140.202 56.5,138C 49.261,131.431 42.761,124.265 37,116.5C 34.3286,110.475 33.162,104.142 33.5,97.5 Z"/></g>
</svg>
