<?xml version="1.0" standalone="no"?>
<!DOCTYPE svg PUBLIC "-//W3C//DTD SVG 20010904//EN"
 "http://www.w3.org/TR/2001/REC-SVG-20010904/DTD/svg10.dtd">
<svg version="1.0" xmlns="http://www.w3.org/2000/svg"
 width="370.000000pt" height="80.000000pt" viewBox="0 0 370.000000 80.000000"
 preserveAspectRatio="xMidYMid meet">

<g transform="translate(0.000000,80.000000) scale(0.100000,-0.100000)"
fill="#000000" stroke="none">
<path d="M0 400 l0 -400 1475 0 1475 0 0 400 0 400 -1475 0 -1475 0 0 -400z
m430 95 l0 -35 -120 0 -120 0 0 -75 0 -75 120 0 120 0 0 -35 0 -35 -129 0
c-128 0 -130 0 -150 26 -18 23 -21 41 -21 119 0 78 3 96 21 119 20 26 22 26
150 26 l129 0 0 -35z m450 15 c18 -18 20 -33 20 -145 l0 -125 -132 0 c-160 0
-168 4 -168 91 0 81 14 89 148 89 93 0 103 2 100 18 -3 15 -18 17 -121 20
l-117 3 0 34 0 35 125 0 c112 0 127 -2 145 -20z m468 -17 l3 -33 -110 0 c-104
0 -111 -1 -111 -20 0 -19 7 -20 97 -20 121 0 133 -8 133 -91 0 -83 -12 -89
-167 -89 l-123 0 0 35 0 34 118 3 c96 2 117 6 117 18 0 12 -20 16 -103 20
-121 6 -132 14 -132 92 0 35 6 54 20 68 19 19 31 20 138 18 l117 -3 3 -32z
m240 -20 l3 -53 110 0 c96 0 111 -2 129 -20 37 -37 20 -145 -24 -156 -12 -2
-77 -3 -146 -2 l-125 3 -3 129 c-1 72 0 136 3 144 3 7 15 12 27 10 20 -3 23
-10 26 -55z m732 37 c17 -17 20 -33 20 -125 0 -145 -1 -145 -162 -145 -161 0
-158 -2 -158 143 0 150 -3 147 157 147 110 0 125 -2 143 -20z m280 -31 l43
-52 45 52 c33 38 51 51 71 51 15 0 31 -3 34 -7 4 -3 -18 -34 -48 -69 -30 -34
-55 -66 -55 -71 0 -5 23 -34 50 -65 28 -31 50 -61 50 -67 0 -6 -12 -11 -27
-11 -19 0 -42 14 -75 47 l-47 47 -42 -47 c-30 -35 -48 -47 -69 -47 -16 0 -31
4 -34 8 -3 4 20 36 50 69 30 34 54 64 54 68 0 4 -24 34 -54 68 -30 33 -53 65
-50 69 3 4 18 8 33 8 21 0 38 -12 71 -51z"/>
<path d="M650 330 c0 -19 7 -20 100 -20 93 0 100 1 100 20 0 19 -7 20 -100 20
-93 0 -100 -1 -100 -20z"/>
<path d="M1590 330 c0 -19 7 -20 100 -20 93 0 100 1 100 20 0 19 -7 20 -100
20 -93 0 -100 -1 -100 -20z"/>
<path d="M2070 385 l0 -75 105 0 105 0 0 75 0 75 -105 0 -105 0 0 -75z"/>
</g>
</svg>
